<svg width="328" height="296" viewBox="0 0 328 296" fill="none" xmlns="http://www.w3.org/2000/svg">
<path d="M277.745 0C250.525 0 228.255 22.2706 228.255 49.4902C228.255 76.7099 250.525 98.9805 277.745 98.9805C304.965 98.9805 327.235 76.7099 327.235 49.4902C327.235 22.2706 304.965 0 277.745 0ZM262.057 24.9926C266.907 24.9926 270.816 28.9023 270.816 33.8018C270.816 38.6519 266.907 42.5616 262.057 42.5616C257.157 42.5616 253.247 38.6519 253.247 33.8018C253.247 28.9023 257.157 24.9926 262.057 24.9926ZM293.681 74.2354C288.831 74.2354 284.921 70.2762 284.921 65.4261C284.921 60.5761 288.831 56.6663 293.681 56.6663C298.531 56.6663 302.49 60.5761 302.49 65.4261C302.49 70.2762 298.531 74.2354 293.681 74.2354ZM260.424 74.3838L253 66.9603L295.215 24.7451L302.639 32.1687L260.424 74.3838Z" fill="#499F53"/>
<path fill-rule="evenodd" clip-rule="evenodd" d="M0.254883 49.4902C0.254883 36.3646 5.46902 23.7766 14.7502 14.4954C24.0315 5.21414 36.6195 0 49.7451 0C62.8708 0 75.4588 5.21414 84.74 14.4954C94.0212 23.7766 99.2354 36.3646 99.2354 49.4902C99.2354 62.6159 94.0212 75.2039 84.74 84.4851C75.4588 93.7664 62.8708 98.9805 49.7451 98.9805C36.6195 98.9805 24.0315 93.7664 14.7502 84.4851C5.46902 75.2039 0.254883 62.6159 0.254883 49.4902ZM46.4458 26.3948C43.3302 26.3944 40.2585 27.1294 37.4806 28.5399C34.7026 29.9505 32.2968 31.9968 30.4589 34.5125C28.6209 37.0282 27.4026 39.9421 26.9032 43.0174C26.4037 46.0927 26.6372 49.2424 27.5846 52.2104C28.5319 55.1785 30.1665 57.881 32.3552 60.0982C34.544 62.3154 37.2252 63.9847 40.1808 64.9703C43.1363 65.9559 46.2828 66.23 49.3642 65.7703C52.4457 65.3106 55.3751 64.1301 57.9143 62.3247L67.2119 71.6223L71.8772 66.957L62.5796 57.6594C64.6844 54.6981 65.9337 51.2145 66.1905 47.5904C66.4474 43.9663 65.702 40.3414 64.0358 37.1128C62.3697 33.8841 59.8472 31.1763 56.7446 29.2858C53.642 27.3953 50.079 26.3951 46.4458 26.3948Z" fill="#5AC2E9"/>
<path d="M9.15527e-05 295.981C9.15527e-05 252.571 17.2449 210.938 47.9409 180.242C78.6369 149.546 120.27 132.301 163.68 132.301C207.091 132.301 248.724 149.546 279.42 180.242C310.116 210.938 327.36 252.571 327.36 295.981L278.256 295.981C278.256 265.594 266.185 236.451 244.698 214.964C223.211 193.477 194.068 181.405 163.68 181.405C133.293 181.405 104.15 193.477 82.6627 214.964C61.1755 236.451 49.1041 265.594 49.1041 295.981H9.15527e-05Z" fill="#EAD700"/>
</svg>
