<svg width="31" height="31" viewBox="0 0 31 31" fill="none" xmlns="http://www.w3.org/2000/svg">
<path id="Vector" d="M14.759 9.99372H14.7591C15.6337 9.9938 16.4914 10.2346 17.2382 10.6897C17.9851 11.1447 18.5923 11.7966 18.9934 12.5738C19.3945 13.351 19.5739 14.2236 19.5121 15.096C19.4503 15.9684 19.1496 16.807 18.6429 17.5199L18.2988 18.004L18.7188 18.424L20.79 20.4953L20.4953 20.79L18.424 18.7188L18.0039 18.2987L17.5198 18.6429C16.9086 19.0775 16.2034 19.3617 15.4616 19.4724C14.7198 19.583 13.9624 19.5171 13.2509 19.2798C12.5394 19.0425 11.894 18.6407 11.3671 18.107C10.8402 17.5732 10.4467 16.9227 10.2187 16.2082C9.99062 15.4937 9.93442 14.7355 10.0547 13.9952C10.1749 13.2549 10.4681 12.5534 10.9106 11.9478C11.353 11.3423 11.9322 10.8497 12.6009 10.5101C13.2696 10.1705 14.009 9.99362 14.759 9.99372ZM5.50705 5.50705C2.81154 8.20256 1.29721 11.8585 1.29721 15.6705C1.29721 19.4825 2.81154 23.1384 5.50705 25.8339C8.20256 28.5294 11.8585 30.0438 15.6705 30.0438C19.4825 30.0438 23.1384 28.5294 25.8339 25.8339C28.5294 23.1384 30.0438 19.4825 30.0438 15.6705C30.0438 11.8585 28.5294 8.20256 25.8339 5.50705C23.1384 2.81154 19.4825 1.29721 15.6705 1.29721C11.8585 1.29721 8.20256 2.81154 5.50705 5.50705Z" fill="#5AC2E9" stroke="#F5F5F5" stroke-width="1.40558"/>
</svg>
