<svg width="27" height="27" viewBox="0 0 27 27" fill="none" xmlns="http://www.w3.org/2000/svg">
<g id="menu icon fruits and veg">
<circle id="Ellipse 9" cx="13.5" cy="13.5" r="13.5" fill="#215B27"/>
<path id="Vector" d="M17.1413 7.79111C16.2885 7.34567 15.3403 7.39231 14.844 7.81819L14.5905 8.03181L14.437 7.73829C14.3117 7.49805 14.1371 7.27021 13.9314 7.07653C13.521 6.69363 13.0284 6.48078 12.5807 6.44217C12.1325 6.4033 11.7384 6.53061 11.4702 6.81786C11.1796 7.1299 11.0731 7.60101 11.2096 8.12991L11.3147 8.53378L10.9055 8.45176C9.79497 8.23383 8.93741 8.53652 8.63491 9.10937C8.44848 9.46631 8.46965 9.9185 8.69805 10.4098C8.92703 10.8981 9.36818 11.4116 9.98297 11.8315L10.1562 11.9483L10.0784 12.1414C10.0496 12.2219 10.0301 12.2972 10.0222 12.3754L10.0209 12.378C9.97967 12.7285 10.1333 13.0787 10.4539 13.3745C10.7705 13.6716 11.2518 13.8999 11.8116 13.9652C12.3988 14.0348 13.3966 13.5585 13.6809 13.3679L14.0685 13.0995L14.0893 13.5713C14.1081 13.9334 14.3164 14.8421 14.5784 15.1996C14.8558 15.5782 15.2242 15.8266 15.5822 15.9246C15.9413 16.0266 16.2781 15.982 16.5349 15.7935C16.5919 15.7475 16.6423 15.7014 16.6837 15.6539L16.8383 15.4779L17.0335 15.6095C17.1564 15.6901 17.2793 15.7642 17.409 15.8319C18.1529 16.2205 18.9404 16.3552 19.589 16.2693C20.2351 16.1821 20.7343 15.8832 20.9802 15.4124C21.3395 14.7244 21.0867 13.743 20.2375 12.9242L19.8849 12.5886L20.36 12.4812C20.8594 12.3651 21.1631 12.0997 21.2562 11.7823C21.3399 11.4895 21.248 11.16 20.9878 10.8434C20.7278 10.5262 20.299 10.2417 19.7719 10.0885C19.4192 9.98691 19.053 9.9553 18.7256 9.99466L18.3946 10.0345L18.4315 9.7048C18.5027 9.05062 18.0019 8.24061 17.1413 7.79111ZM15.7722 9.55958C15.9718 9.65757 16.1376 9.79488 16.2626 9.96617C16.4531 10.2332 16.5379 10.5573 16.5556 10.9024C17.3984 10.8553 18.0098 11.043 18.4045 11.4368C18.8508 11.8773 18.9932 12.508 19.017 13.1953L18.4937 13.2117C18.4715 12.5911 18.3358 12.1054 18.0374 11.8113C17.7378 11.5132 17.2306 11.3471 16.3294 11.4492L16.0255 11.4814L16.0332 11.176C16.0451 10.7806 15.981 10.4739 15.8379 10.274C15.6922 10.0728 15.4579 9.93399 15.0074 9.89951L15.0502 9.37538C15.3261 9.39669 15.5673 9.45915 15.7722 9.55958ZM13.2898 10.4147C13.4946 10.5217 13.6514 10.6826 13.7675 10.8584C14.08 11.3213 14.1526 11.9024 14.2047 12.1502L13.6878 12.2555C13.6298 11.9684 13.5429 11.4654 13.3324 11.1481C13.224 10.9894 13.1002 10.8852 12.9336 10.8377C12.7605 10.7901 12.5211 10.8 12.1668 10.9541L11.885 11.0768L11.8063 10.7789C11.6945 10.3486 11.4506 10.1586 11.1889 10.0911C10.9259 10.0261 10.6362 10.1052 10.4568 10.2881L10.0802 9.9202C10.3981 9.59574 10.8717 9.47108 11.3165 9.58158C11.6862 9.67593 12.0255 9.94861 12.2196 10.3792C12.5364 10.278 12.8243 10.2638 13.0703 10.3297C13.1471 10.3533 13.2224 10.3795 13.2898 10.4147ZM13.6111 14.0195C13.3723 14.1482 13.0718 14.2876 12.7486 14.3821C12.2181 15.4548 11.7426 16.5167 11.4505 17.4802L10.9386 17.3675C11.0749 16.4116 11.2186 15.4101 11.3387 14.4095C10.8712 14.2937 10.4603 14.0824 10.1421 13.801C10.0198 15.6333 9.81169 17.5921 9.69232 18.9387C9.67965 19.0704 9.75343 19.2702 9.92255 19.4771C10.093 19.6813 10.3511 19.882 10.6337 20.0296C10.9137 20.1758 11.2247 20.2625 11.4966 20.2663C11.7697 20.2739 11.9932 20.1998 12.1753 20.0216C13.5248 18.6887 14.9456 17.5477 16.3776 16.4421C16.0768 16.5253 15.7539 16.518 15.4429 16.4313C15.2529 16.3782 15.0673 16.2977 14.89 16.1886C14.1009 16.853 13.3556 17.5534 12.7353 18.2862L12.2861 18.0219C12.6742 17.0197 13.2336 15.9424 13.8256 14.8722C13.7205 14.5869 13.6511 14.284 13.6111 14.0195Z" fill="white"/>
</g>
</svg>
